<svg width="25" height="24" viewBox="0 0 25 24" fill="none" xmlns="http://www.w3.org/2000/svg">
<g clip-path="url(#clip0_175_289)">
<path d="M4.87439 8C4.87439 6.93913 5.29582 5.92172 6.04596 5.17157C6.79611 4.42143 7.81352 4 8.87439 4H16.8744C17.9353 4 18.9527 4.42143 19.7028 5.17157C20.453 5.92172 20.8744 6.93913 20.8744 8V16C20.8744 17.0609 20.453 18.0783 19.7028 18.8284C18.9527 19.5786 17.9353 20 16.8744 20H8.87439C7.81352 20 6.79611 19.5786 6.04596 18.8284C5.29582 18.0783 4.87439 17.0609 4.87439 16V8Z" stroke="#2C3E50" stroke-width="1.5" stroke-linecap="round" stroke-linejoin="round"/>
<path d="M9.87439 12C9.87439 12.7956 10.1905 13.5587 10.7531 14.1213C11.3157 14.6839 12.0787 15 12.8744 15C13.67 15 14.4331 14.6839 14.9957 14.1213C15.5583 13.5587 15.8744 12.7956 15.8744 12C15.8744 11.2044 15.5583 10.4413 14.9957 9.87868C14.4331 9.31607 13.67 9 12.8744 9C12.0787 9 11.3157 9.31607 10.7531 9.87868C10.1905 10.4413 9.87439 11.2044 9.87439 12Z" stroke="#2C3E50" stroke-width="1.5" stroke-linecap="round" stroke-linejoin="round"/>
<path d="M17.3744 7.5V7.51" stroke="#2C3E50" stroke-width="1.5" stroke-linecap="round" stroke-linejoin="round"/>
</g>
<defs>
<clipPath id="clip0_175_289">
<rect width="24" height="24" fill="white" transform="translate(0.87439)"/>
</clipPath>
</defs>
</svg>
