<svg width="25" height="24" viewBox="0 0 25 24" fill="none" xmlns="http://www.w3.org/2000/svg">
<g clip-path="url(#clip0_175_277)">
<path d="M3.87439 7C3.87439 6.46957 4.0851 5.96086 4.46018 5.58579C4.83525 5.21071 5.34396 5 5.87439 5H19.8744C20.4048 5 20.9135 5.21071 21.2886 5.58579C21.6637 5.96086 21.8744 6.46957 21.8744 7V17C21.8744 17.5304 21.6637 18.0391 21.2886 18.4142C20.9135 18.7893 20.4048 19 19.8744 19H5.87439C5.34396 19 4.83525 18.7893 4.46018 18.4142C4.0851 18.0391 3.87439 17.5304 3.87439 17V7Z" stroke="#00AFC0" stroke-width="1.75" stroke-linecap="round" stroke-linejoin="round"/>
<path d="M3.87439 7L12.8744 13L21.8744 7" stroke="#00AFC0" stroke-width="1.75" stroke-linecap="round" stroke-linejoin="round"/>
</g>
<defs>
<clipPath id="clip0_175_277">
<rect width="24" height="24" fill="white" transform="translate(0.87439)"/>
</clipPath>
</defs>
</svg>
